<svg width="20" height="20" viewBox="0 0 20 20" fill="none" xmlns="http://www.w3.org/2000/svg">
<g clip-path="url(#clip0_3750_3874)">
<path d="M10.3333 3.66654C14.0083 3.66654 17 6.65821 17 10.3332C17 14.0082 14.0083 16.9999 10.3333 16.9999C6.65833 16.9999 3.66667 14.0082 3.66667 10.3332C3.66667 6.65821 6.65833 3.66654 10.3333 3.66654ZM10.3333 1.99988C5.73333 1.99988 2 5.73321 2 10.3332C2 14.9332 5.73333 18.6665 10.3333 18.6665C14.9333 18.6665 18.6667 14.9332 18.6667 10.3332C18.6667 5.73321 14.9333 1.99988 10.3333 1.99988ZM11.1667 10.3332V6.99988H9.5V10.3332H7L10.3333 13.6665L13.6667 10.3332H11.1667Z" fill="white"/>
</g>
<defs>
<clipPath id="clip0_3750_3874">
<rect width="20" height="20" fill="white"/>
</clipPath>
</defs>
</svg>
