<svg width="22" height="28" viewBox="0 0 22 28" fill="none" xmlns="http://www.w3.org/2000/svg">
<path d="M12.5901 0.924622C12.1682 0.50327 11.5963 0.266602 11.0001 0.266602C10.4038 0.266602 9.83193 0.50327 9.41005 0.924622L0.92155 9.40862C0.499458 9.83071 0.262329 10.4032 0.262329 11.0001C0.262329 11.5971 0.499458 12.1695 0.92155 12.5916C1.34364 13.0137 1.91612 13.2508 2.51305 13.2508C3.10998 13.2508 3.68246 13.0137 4.10455 12.5916L8.75005 7.94762V25.2501C8.75005 25.8469 8.9871 26.4192 9.40906 26.8411C9.83102 27.2631 10.4033 27.5001 11.0001 27.5001C11.5968 27.5001 12.1691 27.2631 12.591 26.8411C13.013 26.4192 13.2501 25.8469 13.2501 25.2501V7.94762L17.8941 12.5916C18.103 12.8006 18.3512 12.9664 18.6242 13.0795C18.8973 13.1926 19.19 13.2508 19.4855 13.2508C19.7811 13.2508 20.0738 13.1926 20.3469 13.0795C20.6199 12.9664 20.8681 12.8006 21.0771 12.5916C21.286 12.3826 21.4518 12.1345 21.5649 11.8614C21.6781 11.5884 21.7363 11.2957 21.7363 11.0001C21.7363 10.7046 21.6781 10.4119 21.5649 10.1388C21.4518 9.86574 21.286 9.61762 21.0771 9.40862L12.5901 0.924622Z" fill="white"/>
</svg>
