<svg width="44" height="44" viewBox="0 0 44 44" fill="none" xmlns="http://www.w3.org/2000/svg">
<path d="M42.8783 20.0674L23.9322 1.12201C22.8418 0.0309453 21.0722 0.0309453 19.9801 1.12201L16.0463 5.05657L21.0368 10.0471C22.197 9.6556 23.5266 9.91823 24.4509 10.8426C25.3801 11.7728 25.6407 13.1137 25.2395 14.2777L30.0493 19.0878C31.2128 18.6866 32.5559 18.9458 33.4847 19.8767C34.7841 21.175 34.7841 23.2798 33.4847 24.5788C33.1759 24.8878 32.8093 25.1328 32.4058 25.3C32.0022 25.4672 31.5697 25.5533 31.1329 25.5533C30.6961 25.5533 30.2636 25.4672 29.8601 25.3C29.4566 25.1328 29.0899 24.8878 28.7812 24.5788C28.3174 24.1145 28.0012 23.5235 27.8724 22.8799C27.7437 22.2364 27.8081 21.5692 28.0576 20.9622L23.5723 16.477L23.5716 28.2817C23.8971 28.4419 24.1942 28.6542 24.4513 28.9101C25.75 30.2084 25.75 32.3125 24.4513 33.6136C23.1523 34.9119 21.0468 34.9119 19.7491 33.6136C18.4504 32.3129 18.4504 30.2088 19.7491 28.9101C20.0606 28.5988 20.4306 28.3523 20.8378 28.1848V16.2707C20.4301 16.1039 20.0599 15.8572 19.7491 15.5451C18.7653 14.5619 18.5285 13.1182 19.0331 11.9096L14.113 6.98948L1.122 19.9798C0.597895 20.5041 0.303467 21.215 0.303467 21.9564C0.303467 22.6977 0.597895 23.4086 1.122 23.9329L20.0685 42.8784C21.1595 43.9694 22.9285 43.9694 24.0213 42.8784L42.8787 24.0209C43.4027 23.4965 43.697 22.7855 43.6969 22.0441C43.6969 21.3028 43.4024 20.5918 42.8783 20.0674Z" fill="#F34F29"/>
</svg>
