<svg width="44" height="44" viewBox="0 0 44 44" fill="none" xmlns="http://www.w3.org/2000/svg">
<path d="M38.8841 8.96017C31.6829 -0.365082 18.2845 -2.08658 8.95893 5.11601C-0.365287 12.3186 -2.08507 25.717 5.11753 35.0412C12.3215 44.365 25.7209 46.0838 35.0437 38.8798C44.3642 31.6772 46.0843 18.283 38.8841 8.96017Z" fill="#F37036"/>
<path d="M31.308 8.30637C30.5736 8.36511 29.8772 8.65734 29.3208 9.14031C28.6697 9.70582 28.2541 10.4948 28.1561 11.3517C28.0581 12.2085 28.2848 13.071 28.7914 13.7689C29.2976 14.467 30.047 14.95 30.8918 15.1228C31.7366 15.2955 32.6155 15.1455 33.3551 14.7022H33.3557L33.4094 14.7558C33.653 14.6162 33.8796 14.449 34.0848 14.2574C34.718 13.5877 35.0663 12.6984 35.0563 11.7769C35.0463 10.8554 34.6787 9.97376 34.0312 9.31803V9.31734L30.9911 12.3386L30.9375 12.2853L33.9776 9.26268C33.6257 8.92343 33.2057 8.6628 32.7455 8.49806C32.2853 8.33331 31.7953 8.26821 31.308 8.30706V8.30637ZM27.3054 13.2519C25.8479 13.2495 23.4681 14.9016 17.6574 20.7123L17.6862 20.7419C17.6546 20.7309 17.6226 20.7298 17.6226 20.7298L15.435 22.8982C15.3788 22.9516 15.3417 23.022 15.3291 23.0985C15.3166 23.175 15.3294 23.2535 15.3656 23.3221C15.4018 23.3906 15.4594 23.4455 15.5296 23.4783C15.5999 23.5112 15.6789 23.5201 15.7547 23.5039L19.5064 22.7037C19.5231 22.6882 19.5342 22.6676 19.538 22.6452L19.6212 22.7312L18.3425 23.9996H18.2806L10.6885 31.6515L13.1243 33.9972C13.1924 34.0588 13.2783 34.097 13.3696 34.1062C13.4609 34.1154 13.5528 34.0952 13.6317 34.0484C13.7113 34.0021 13.7751 33.9328 13.8146 33.8497C13.8542 33.7665 13.8677 33.6733 13.8534 33.5823L13.4976 32.0354C13.4753 32.0044 13.4632 31.9671 13.4632 31.9289C13.4632 31.8906 13.4753 31.8533 13.4976 31.8223C16.8231 30.2369 19.9156 28.2033 22.6888 25.7782L21.1299 24.2186L21.1595 24.2137L20.2348 23.2894L20.2939 23.2296L20.3565 23.2935L20.3242 23.3248L22.7775 25.8318V25.8307C27.48 21.3778 30.8178 17.7983 29.9499 15.3893C29.9103 15.1013 29.7765 14.8344 29.5693 14.6303V14.6317C29.5166 14.5927 29.4611 14.5576 29.4033 14.5265C29.3748 14.4963 29.3497 14.4653 29.3194 14.4358L29.2967 14.4585C29.2329 14.4199 29.166 14.3865 29.0967 14.3588L29.196 14.2584C28.5786 13.7084 28.0685 13.2533 27.3054 13.2512V13.2519ZM10.6356 31.6972L8.85806 33.4751V33.4764C8.79428 33.5159 8.7447 33.5747 8.71646 33.6442C8.68823 33.7137 8.6828 33.7904 8.70096 33.8632C8.7185 33.9359 8.75853 34.0013 8.81537 34.05C8.87221 34.0987 8.94296 34.1282 9.01756 34.1344L13.3736 34.4352L10.6356 31.6972Z" fill="white"/>
<path d="M31.6078 8.01282C30.6102 8.01169 29.6521 8.40311 28.9407 9.10251C28.4346 9.62058 28.0881 10.2732 27.9424 10.9827C27.7967 11.6921 27.8581 12.4285 28.1191 13.1041C26.4894 12.4063 24.2846 13.6232 17.4264 20.4799C17.4217 20.4905 17.4174 20.5013 17.4137 20.5123C17.3996 20.5184 17.386 20.5256 17.3728 20.5336L15.2041 22.7212C15.1002 22.8232 15.0319 22.9561 15.0094 23.1C14.9869 23.2439 15.0114 23.3912 15.0793 23.5201C15.1399 23.6221 15.2257 23.7068 15.3284 23.766C15.4312 23.8253 15.5475 23.8571 15.6661 23.8583L15.7737 23.7885L18.6694 23.1708L17.2841 24.5689C17.2763 24.5873 17.2701 24.6064 17.2656 24.6259L10.4765 31.4318C10.4495 31.4546 10.427 31.4824 10.4105 31.5136L8.66219 33.2633C8.57517 33.3554 8.5157 33.47 8.49054 33.5941C8.46538 33.7182 8.47555 33.8469 8.51988 33.9656C8.56564 34.0834 8.64297 34.1863 8.7434 34.263C8.84382 34.3397 8.96345 34.3873 9.08913 34.4004L13.4266 34.7029C13.5007 34.6772 13.5638 34.6268 13.6053 34.5603C13.6424 34.5084 13.6624 34.4462 13.6624 34.3824C13.6624 34.3186 13.6424 34.2564 13.6053 34.2045L13.5964 34.1959C13.6902 34.1471 13.7728 34.0792 13.8387 33.9965C13.9083 33.9061 13.9569 33.8013 13.9811 33.6898C14.0052 33.5783 14.0043 33.4628 13.9783 33.3517L13.64 31.9124C16.8852 30.3616 19.9258 28.4148 22.6924 26.1164C22.719 26.132 22.7477 26.1439 22.7776 26.1518C22.8649 26.1453 22.9467 26.1078 23.0086 26.0459C27.6664 21.6356 30.4044 18.6134 30.4044 16.214C30.4147 15.8812 30.3645 15.5492 30.2562 15.2343C30.6761 15.4081 31.1238 15.5047 31.5779 15.5196L31.5728 15.521C32.1984 15.5021 32.8099 15.3311 33.3544 15.0226L33.3558 15.0229C33.4263 15.0439 33.5022 15.0371 33.5679 15.004C33.8307 14.8492 34.0703 14.6581 34.2795 14.4361C34.634 14.0884 34.9157 13.6734 35.108 13.2155C35.3002 12.7576 35.3993 12.266 35.3994 11.7693C35.3994 11.2727 35.3003 10.7811 35.1081 10.3232C34.9159 9.8653 34.6343 9.45032 34.2798 9.10251C34.2671 9.09109 34.2535 9.08063 34.2393 9.07123C33.5315 8.39194 32.5885 8.01279 31.6075 8.01316L31.6078 8.01282ZM31.5779 8.62195C32.2726 8.62609 32.9469 8.85713 33.4981 9.27988L30.7248 12.0701C30.7154 12.0808 30.7066 12.092 30.6986 12.1038C30.6486 12.1544 30.6193 12.2218 30.6165 12.2929C30.6164 12.3358 30.6261 12.3782 30.6447 12.4169C30.6634 12.4556 30.6905 12.4895 30.7241 12.5163H30.7248L32.8216 14.6132C32.2477 14.8636 31.6115 14.9349 30.9964 14.8175C30.3812 14.7002 29.8159 14.3997 29.3745 13.9556C28.4856 13.0618 28.2278 11.7198 28.7032 10.5555C29.1786 9.39023 30.3119 8.62882 31.5779 8.62195ZM34.0254 9.8017C34.4789 10.3503 34.7261 11.0403 34.7243 11.7521C34.723 12.586 34.3907 13.3852 33.8003 13.9741C33.6819 14.0855 33.5558 14.1883 33.4229 14.2818L31.7306 12.6156L31.3995 12.2846L31.4906 12.1935L34.0251 9.80101L34.0254 9.8017ZM33.8996 11.243C33.8374 11.2235 33.7702 11.2273 33.7106 11.2537C33.6516 11.2842 33.6071 11.3369 33.5868 11.4001C33.5769 11.4317 33.5733 11.4649 33.5762 11.4979C33.5792 11.5309 33.5886 11.563 33.604 11.5923C33.6649 11.7207 33.689 11.8636 33.6734 12.0049C33.6578 12.1463 33.6032 12.2805 33.5157 12.3925C33.4933 12.4142 33.4757 12.4403 33.4641 12.4692C33.4526 12.4981 33.4473 12.5292 33.4486 12.5603C33.45 12.6235 33.4727 12.684 33.5157 12.7294C33.5615 12.7469 33.6122 12.7469 33.658 12.7294C33.6993 12.7397 33.7427 12.7386 33.7834 12.726C33.8241 12.7135 33.8606 12.69 33.889 12.6583C34.0354 12.4789 34.128 12.2619 34.1563 12.0322C34.1846 11.8024 34.1473 11.5694 34.0488 11.3599V11.3613C34.0152 11.305 33.9621 11.2629 33.8996 11.243ZM27.2732 13.5541C27.6879 13.5682 28.0871 13.716 28.411 13.9755C28.0622 14.0258 27.739 14.1874 27.4894 14.4361L19.6495 22.241L18.1109 20.7024C22.1767 16.6557 24.6627 14.542 26.2082 13.8494C26.5267 13.6488 26.8969 13.5464 27.2732 13.5541ZM28.6361 14.5716C28.8993 14.5718 29.1518 14.6761 29.3384 14.8617C29.4374 14.955 29.5156 15.0682 29.5677 15.1938C29.6197 15.3195 29.6446 15.4548 29.6406 15.5908C29.6361 15.7263 29.6037 15.8594 29.5454 15.9818C29.4871 16.1043 29.4043 16.2134 29.302 16.3024L20.966 23.5575L20.0664 22.6579L27.9339 14.8617C28.1205 14.6762 28.373 14.5717 28.6361 14.5716ZM29.6653 16.874C29.0844 19.1778 26.0054 22.2994 22.7948 25.3327L21.4964 24.0357L29.6653 16.874ZM17.6574 21.1568L17.7516 21.2496L18.9592 22.4572L15.6489 23.1653L17.6574 21.1568ZM19.6488 23.1643L19.6502 23.1657L20.0517 23.5764L20.0579 23.6053L20.0847 23.6094L20.1699 23.6968L20.4518 23.9855L18.6007 24.2124L19.6488 23.1643ZM20.9781 24.5654L22.208 25.7947C19.4883 28.0562 16.5039 29.9788 13.3204 31.5202C13.217 31.5694 13.1339 31.6529 13.0852 31.7565C13.0365 31.8601 13.0252 31.9774 13.0533 32.0884L13.409 33.6353C13.4222 33.6534 13.4292 33.6752 13.4292 33.6976C13.4292 33.7201 13.4222 33.7419 13.409 33.76C13.3895 33.7776 13.3641 33.7873 13.3379 33.7873C13.3116 33.7873 13.2863 33.7776 13.2667 33.76L11.1692 31.6453L17.6344 25.0852L20.9781 24.5654ZM10.6886 32.1073L10.9873 32.3871L12.5314 33.9312L9.08844 33.7085L10.6886 32.1073Z" fill="#F37036"/>
</svg>
