<svg width="44" height="44" viewBox="0 0 44 44" fill="none" xmlns="http://www.w3.org/2000/svg">
<path d="M22.0015 8.80066C16.1347 8.80066 12.4693 11.7328 11.0015 17.5996C13.2008 14.6671 15.7682 13.5674 18.7008 14.3007C20.3752 14.718 21.5718 15.9321 22.8969 17.2775C25.0536 19.4662 27.5499 22 33.0015 22C38.8679 22 42.5337 19.0674 44.0015 13.1993C41.8015 16.1333 39.2349 17.2335 36.3018 16.5C34.6277 16.0823 33.4325 14.8685 32.1057 13.5231C29.9503 11.3344 27.4547 8.80066 22.0015 8.80066ZM11.0015 22C5.13503 22 1.46928 24.9325 0.00146484 30.8007C2.20124 27.8666 4.76767 26.7664 7.70078 27.5C9.37518 27.9176 10.5718 29.1314 11.8969 30.4769C14.0536 32.6655 16.5499 35.1993 22.0015 35.1993C27.8679 35.1993 31.5337 32.2671 33.0015 26.4003C30.8015 29.333 28.2349 30.4326 25.3018 29.6993C23.6277 29.282 22.4325 28.0678 21.1057 26.7224C18.9503 24.5338 16.4547 22 11.0015 22Z" fill="#38BDF8"/>
</svg>
