<svg width="44" height="44" viewBox="0 0 44 44" fill="none" xmlns="http://www.w3.org/2000/svg">
<path d="M43.5427 33.8387C41.9752 34.2375 41.0058 33.8559 40.1362 32.5497C38.1837 29.6244 36.0283 26.8331 33.9487 23.9903C33.6805 23.6225 33.4021 23.2615 33.0549 22.8044C30.5937 26.125 28.1358 29.2875 25.8293 32.5772C25.0043 33.7528 24.138 34.265 22.598 33.849L31.8518 21.4294L23.2374 10.2128C24.719 9.92404 25.7433 10.0719 26.6508 11.3987C28.6549 14.3275 30.8652 17.1153 33.0687 20.0647C35.2858 17.1256 37.4687 14.3344 39.5312 11.4331C40.3596 10.2575 41.2499 9.8106 42.7383 10.2437C41.6108 11.739 40.5074 13.2103 39.3971 14.6712C37.8983 16.6409 36.4271 18.6347 34.8733 20.5631C34.3199 21.2506 34.4093 21.6975 34.9043 22.3472C37.778 26.125 40.6174 29.9406 43.5427 33.8387ZM0.45709 21.2231C0.70459 19.9822 0.86959 18.7172 1.21334 17.5003C3.27584 10.1337 11.7321 7.07092 17.5415 11.6359C20.9446 14.3137 21.7902 18.0881 21.6218 22.3437H2.44053C2.15178 29.9784 7.64834 34.5881 14.654 32.2369C17.1118 31.4119 18.559 29.4869 19.2843 27.0806C19.6521 25.874 20.2605 25.685 21.3949 26.0287C20.814 29.04 19.4974 31.5562 16.7474 33.1306C12.6224 35.4887 6.73396 34.7256 3.63678 31.4497C1.80803 29.5247 1.03115 27.1287 0.687402 24.5403C0.63584 24.1278 0.529277 23.7222 0.446777 23.3131C0.453652 22.6164 0.45709 21.9198 0.45709 21.2231ZM2.4749 20.7109H19.8102C19.6968 15.1903 16.2593 11.2681 11.5602 11.2337C6.40397 11.1925 2.69834 15.0219 2.4749 20.7109Z" fill="white"/>
</svg>
