<svg width="44" height="44" viewBox="0 0 44 44" fill="none" xmlns="http://www.w3.org/2000/svg">
<mask id="mask0_3750_3924" style="mask-type:alpha" maskUnits="userSpaceOnUse" x="-1" y="0" width="45" height="44">
<path fill-rule="evenodd" clip-rule="evenodd" d="M31.201 43.6996C31.5512 43.836 31.9256 43.899 32.3012 43.8846C32.6767 43.8701 33.0452 43.7786 33.3838 43.6157L42.4427 39.2566C42.9092 39.032 43.3029 38.6803 43.5783 38.2419C43.8538 37.8035 43.9999 37.2962 43.9999 36.7785V7.22183C44 6.70401 43.8539 6.19669 43.5784 5.75823C43.3029 5.31977 42.9093 4.968 42.4427 4.74339L33.3838 0.384988C32.872 0.138693 32.2962 0.0576011 31.7362 0.152935C31.1762 0.248269 30.6597 0.515315 30.2581 0.917113L12.9159 16.7386L5.36238 11.0045C5.02158 10.7459 4.60105 10.6147 4.17367 10.6336C3.7463 10.6526 3.33903 10.8205 3.02247 11.1083L0.599723 13.3121C0.410918 13.4838 0.260034 13.693 0.156723 13.9264C0.0534128 14.1598 -4.9479e-05 14.4121 -0.00024361 14.6673C-0.000437741 14.9226 0.0526406 15.175 0.155596 15.4085C0.258551 15.6421 0.409117 15.8515 0.59766 16.0235L7.1485 22L0.598004 27.9768C0.409563 28.1488 0.259088 28.3583 0.156196 28.5918C0.0533051 28.8253 0.000261263 29.0776 0.000455374 29.3328C0.000649485 29.588 0.0540773 29.8403 0.157324 30.0736C0.26057 30.3069 0.411364 30.5162 0.600067 30.6879L3.02282 32.8917C3.33933 33.1795 3.74658 33.3475 4.17395 33.3665C4.60133 33.3855 5.02189 33.2544 5.36272 32.9959L12.9163 27.2621L30.2585 43.0832C30.5269 43.3515 30.8476 43.5614 31.201 43.6996ZM33.0064 12.0116L19.848 22L33.0068 31.9887L33.0064 12.0116Z" fill="white"/>
</mask>
<g mask="url(#mask0_3750_3924)">
<path d="M42.443 4.75063L33.377 0.385008C32.8649 0.138397 32.2889 0.0571336 31.7286 0.152475C31.1683 0.247815 30.6515 0.515041 30.2499 0.917133L0.571194 27.9768C0.382612 28.1487 0.232009 28.3582 0.129027 28.5917C0.0260444 28.8252 -0.0270491 29.0776 -0.0268549 29.3328C-0.0266608 29.588 0.0268167 29.8404 0.130154 30.0737C0.233492 30.3071 0.384413 30.5163 0.573256 30.6879L2.99738 32.8917C3.31399 33.1799 3.72151 33.3481 4.14919 33.3671C4.57687 33.3861 4.99772 33.2548 5.33866 32.9959L41.0787 5.8826C42.2777 4.97304 43.9999 5.82829 43.9999 7.33323V7.22804C43.9999 6.71037 43.8538 6.20322 43.5784 5.7649C43.303 5.32657 42.9094 4.97523 42.443 4.75063Z" fill="#0065A9"/>
<g filter="url(#filter0_d_3750_3924)">
<path d="M42.443 39.2497L33.377 43.6147C32.865 43.8614 32.289 43.9427 31.7287 43.8475C31.1684 43.7523 30.6516 43.4852 30.2499 43.0832L0.571194 16.0232C0.382612 15.8513 0.232009 15.6418 0.129027 15.4083C0.0260444 15.1748 -0.0270491 14.9224 -0.0268549 14.6672C-0.0266608 14.412 0.0268167 14.1596 0.130154 13.9263C0.233492 13.6929 0.384413 13.4837 0.573256 13.3121L2.99738 11.1083C3.31399 10.8201 3.72151 10.6519 4.14919 10.6329C4.57687 10.6139 4.99772 10.7452 5.33866 11.0041L41.0787 38.1171C42.2777 39.027 43.9999 38.1717 43.9999 36.6668V36.772C43.9999 37.2896 43.8538 37.7968 43.5784 38.2351C43.303 38.6734 42.9094 39.0251 42.443 39.2497Z" fill="#007ACC"/>
</g>
<g filter="url(#filter1_d_3750_3924)">
<path d="M33.3774 43.6157C32.8652 43.8618 32.2892 43.9428 31.7289 43.8474C31.1687 43.752 30.6519 43.485 30.25 43.0832C31.2647 44.0979 33 43.3792 33 41.944V2.0556C33 0.620447 31.2647 -0.0983347 30.25 0.916759C30.6519 0.51498 31.1687 0.247948 31.7289 0.152564C32.2892 0.0571796 32.8652 0.138151 33.3774 0.38429L42.4418 4.74373C42.9085 4.96819 43.3024 5.31989 43.5781 5.75836C43.8538 6.19683 44 6.70424 44 7.22217V36.7785C44 37.2964 43.8538 37.8038 43.5781 38.2423C43.3024 38.6808 42.9085 39.0325 42.4418 39.2569L33.3774 43.6157Z" fill="#1F9CF0"/>
</g>
<path opacity="0.25" fill-rule="evenodd" clip-rule="evenodd" d="M31.1746 43.6998C31.5247 43.8362 31.8991 43.8992 32.2746 43.8847C32.65 43.8703 33.0185 43.7788 33.3571 43.6159L42.4159 39.2568C42.8825 39.0322 43.2762 38.6805 43.5516 38.242C43.8271 37.8035 43.9732 37.2962 43.9731 36.7784V7.22208C43.9732 6.70426 43.8271 6.19693 43.5516 5.75847C43.2762 5.32001 42.8825 4.96824 42.4159 4.74364L33.3571 0.385232C32.8452 0.138937 32.2694 0.0578453 31.7094 0.153179C31.1494 0.248513 30.6329 0.515559 30.2314 0.917357L12.8892 16.7388L5.3356 11.005C4.99481 10.7465 4.57427 10.6153 4.14689 10.6342C3.71952 10.6532 3.31225 10.8211 2.9957 11.1089L0.572945 13.3126C0.384187 13.4844 0.233345 13.6936 0.130065 13.927C0.0267849 14.1604 -0.0266608 14.4127 -0.0268549 14.6679C-0.0270491 14.9231 0.0260127 15.1756 0.128938 15.4091C0.231863 15.6426 0.382386 15.8521 0.570882 16.0241L7.12173 22.0002L0.571226 27.9767C0.382682 28.1487 0.232117 28.3581 0.129162 28.5917C0.0262063 28.8252 -0.026872 29.0777 -0.0266778 29.3329C-0.0264837 29.5881 0.0269786 29.8405 0.130289 30.0738C0.233599 30.3072 0.384483 30.5164 0.573289 30.6882L2.99604 32.892C3.31255 33.1798 3.7198 33.3477 4.14718 33.3668C4.57455 33.3858 4.99511 33.2547 5.33594 32.9961L12.8899 27.262L30.232 43.0835C30.5003 43.3517 30.8213 43.5616 31.1746 43.6998ZM32.98 12.0115L19.8212 22.0002L32.98 31.9886V12.0115Z" fill="url(#paint0_linear_3750_3924)"/>
</g>
<defs>
<filter id="filter0_d_3750_3924" x="-1.06861" y="9.58935" width="46.1104" height="35.3386" filterUnits="userSpaceOnUse" color-interpolation-filters="sRGB">
<feFlood flood-opacity="0" result="BackgroundImageFix"/>
<feColorMatrix in="SourceAlpha" type="matrix" values="0 0 0 0 0 0 0 0 0 0 0 0 0 0 0 0 0 0 127 0" result="hardAlpha"/>
<feOffset/>
<feGaussianBlur stdDeviation="0.520875"/>
<feColorMatrix type="matrix" values="0 0 0 0 0 0 0 0 0 0 0 0 0 0 0 0 0 0 0.25 0"/>
<feBlend mode="overlay" in2="BackgroundImageFix" result="effect1_dropShadow_3750_3924"/>
<feBlend mode="normal" in="SourceGraphic" in2="effect1_dropShadow_3750_3924" result="shape"/>
</filter>
<filter id="filter1_d_3750_3924" x="29.2083" y="-0.928102" width="15.8335" height="45.8561" filterUnits="userSpaceOnUse" color-interpolation-filters="sRGB">
<feFlood flood-opacity="0" result="BackgroundImageFix"/>
<feColorMatrix in="SourceAlpha" type="matrix" values="0 0 0 0 0 0 0 0 0 0 0 0 0 0 0 0 0 0 127 0" result="hardAlpha"/>
<feOffset/>
<feGaussianBlur stdDeviation="0.520875"/>
<feColorMatrix type="matrix" values="0 0 0 0 0 0 0 0 0 0 0 0 0 0 0 0 0 0 0.25 0"/>
<feBlend mode="overlay" in2="BackgroundImageFix" result="effect1_dropShadow_3750_3924"/>
<feBlend mode="normal" in="SourceGraphic" in2="effect1_dropShadow_3750_3924" result="shape"/>
</filter>
<linearGradient id="paint0_linear_3750_3924" x1="21.9731" y1="0.11367" x2="21.9731" y2="43.8868" gradientUnits="userSpaceOnUse">
<stop stop-color="white"/>
<stop offset="1" stop-color="white" stop-opacity="0"/>
</linearGradient>
</defs>
</svg>
