<svg width="44" height="44" viewBox="0 0 44 44" fill="none" xmlns="http://www.w3.org/2000/svg">
<path d="M0 31.3888H1.45819V25.632L3.71525 30.6501C3.98097 31.2585 4.345 31.472 5.06069 31.472C5.77638 31.472 6.12563 31.2585 6.39134 30.6501L8.64841 25.632V31.3885H10.1066V25.6417C10.1066 25.0803 9.88247 24.8091 9.41909 24.6695C8.31119 24.3244 7.56869 24.6225 7.23181 25.3705L5.01772 30.3239L2.87341 25.3705C2.55131 24.6225 1.79403 24.3244 0.6875 24.6695C0.224125 24.8091 0 25.0803 0 25.6417L0 31.3888ZM11.3197 26.7025H12.7765V29.8743C12.7631 30.0461 12.8315 30.4504 13.6304 30.4638H16.8008V26.6863H18.2617C18.2686 26.6863 18.259 31.8371 18.259 31.8587C18.2669 33.1289 16.6839 33.4042 15.9534 33.4259H11.3506V32.4455L15.9617 32.4441C16.9001 32.3462 16.7888 31.8787 16.7888 31.723V31.3404H13.6909C12.2488 31.327 11.3317 30.6972 11.3197 29.9733C11.3183 29.9076 11.3506 26.7348 11.3197 26.7025Z" fill="#00618A"/>
<path d="M19.3845 31.3888H23.5766C24.0667 31.3888 24.5435 31.2854 24.922 31.1083C25.5531 30.8196 25.8604 30.4263 25.8604 29.9121V28.8471C25.8604 28.4267 25.5112 28.0335 24.8237 27.7729C24.4596 27.632 24.01 27.5581 23.5762 27.5581H21.809C21.2208 27.5581 20.9403 27.3807 20.8706 26.9888C20.8571 26.9417 20.8571 26.9043 20.8571 26.8572V26.1937C20.8571 26.1563 20.8571 26.1184 20.8706 26.0717C20.9403 25.7737 21.0947 25.6891 21.6131 25.642L21.754 25.6327H25.9165V24.662H21.8241C21.236 24.662 20.9273 24.6994 20.6464 24.783C19.7778 25.0542 19.399 25.4839 19.399 26.2319V27.082C19.399 27.7358 20.1415 28.2971 21.3889 28.4274L21.8093 28.4463H23.3239C23.3803 28.4463 23.4353 28.4463 23.4782 28.4556C23.9402 28.4931 24.1362 28.5776 24.2771 28.7457C24.3496 28.8128 24.3912 28.9083 24.3885 29.0063V29.8578C24.3885 29.9599 24.3187 30.0915 24.1791 30.2029C24.053 30.3156 23.8423 30.3895 23.5628 30.4084L23.4085 30.4177H19.3845V31.3888ZM34.9554 29.6969C34.9554 30.6972 35.6992 31.2572 37.1976 31.3699L37.6194 31.3888H41.4182V30.4167H37.5912C36.736 30.4167 36.4136 30.2018 36.4136 29.6876V24.6599H34.9567V29.6965L34.9554 29.6969ZM26.7913 29.7478V26.2821C26.7913 25.4024 27.4104 24.8682 28.6321 24.7001C28.7624 24.6813 28.894 24.6719 29.0257 24.6719H31.7918C31.9328 24.6719 32.0589 24.6812 32.2002 24.7001C33.4222 24.8679 34.04 25.4024 34.04 26.2821V29.7478C34.04 30.4621 33.778 30.8436 33.1727 31.0932L34.6096 32.3891H32.9162L31.7547 31.3403L30.5853 31.4143H29.0264C28.7366 31.4134 28.4484 31.3726 28.1697 31.2933C27.242 31.0409 26.792 30.5535 26.792 29.7478H26.7913ZM28.365 29.6632C28.365 29.7103 28.3784 29.757 28.3932 29.8138C28.4777 30.2166 28.8566 30.4408 29.4323 30.4408H30.7565L29.5399 29.3425H31.2332L32.2941 30.3012C32.49 30.1964 32.6175 30.0379 32.6632 29.8327C32.6766 29.7856 32.6766 29.7388 32.6766 29.6917V26.3684C32.6766 26.3309 32.6766 26.2838 32.6632 26.2367C32.5787 25.862 32.1999 25.6472 31.6375 25.6472H29.4327C28.7868 25.6472 28.3653 25.9277 28.3653 26.3684L28.365 29.6632Z" fill="#E48E00"/>
<path d="M42.7003 23.0474C41.8049 23.0233 41.1198 23.1065 40.5344 23.3537C40.368 23.4235 40.1019 23.4248 40.0751 23.6332C40.1666 23.7297 40.1813 23.8734 40.2539 23.9903C40.3934 24.2172 40.6299 24.5193 40.8407 24.6778L41.5536 25.1879C41.9912 25.455 42.4814 25.6083 42.9045 25.8754C43.1531 26.0339 43.3999 26.2326 43.6429 26.4113C43.7625 26.4987 43.843 26.6368 44.0001 26.6918V26.6664C43.9183 26.5616 43.8966 26.4179 43.8213 26.3092L43.4896 25.9775C43.1661 25.5478 42.755 25.1704 42.3174 24.8562C41.9682 24.6063 41.1896 24.2681 41.0431 23.8624L41.0177 23.837C41.2648 23.8102 41.555 23.7201 41.7818 23.6596C42.1658 23.5562 42.5082 23.583 42.9032 23.4809L43.4391 23.3265V23.2258C43.239 23.0202 43.0967 22.749 42.8777 22.5624C42.3085 22.0777 41.6853 21.5916 41.0435 21.186C40.6877 20.9619 40.2487 20.8168 39.8713 20.626C39.7451 20.5617 39.522 20.5294 39.4375 20.4218C39.2402 20.1695 39.1326 19.8498 38.9796 19.5556L38.0625 17.6192C37.8693 17.1775 37.7428 16.741 37.5011 16.345C36.3451 14.4423 35.099 13.2942 33.1692 12.1663C32.7598 11.9261 32.2641 11.8319 31.7433 11.7085L30.9015 11.6576C30.731 11.5851 30.5536 11.3757 30.3927 11.275C29.7537 10.8707 28.114 9.99281 27.64 11.1475C27.3419 11.8766 28.0872 12.5881 28.3543 12.9577C28.5409 13.2168 28.7812 13.507 28.9143 13.7981C29.0029 13.9889 29.0177 14.1807 29.093 14.3835C29.2783 14.883 29.4395 15.4254 29.6798 15.8874C29.8008 16.1212 29.9335 16.367 30.0868 16.5749C30.1806 16.7025 30.3418 16.7602 30.3673 16.9575C30.2102 17.1779 30.2009 17.5189 30.1122 17.798C29.7135 19.0534 29.8637 20.6137 30.4439 21.5442C30.6213 21.8288 31.04 22.441 31.6161 22.2062C32.1197 22.0007 32.007 21.3658 32.1507 20.8044C32.1843 20.6783 32.1641 20.5841 32.2273 20.4995V20.525L32.6866 21.4421C33.0262 21.9887 33.6278 22.5593 34.1382 22.9446C34.4039 23.1447 34.6123 23.4912 34.9546 23.6081V23.5812H34.9292C34.8622 23.4792 34.7587 23.4362 34.6741 23.353C34.4741 23.1571 34.2523 22.914 34.0887 22.6896C33.624 22.0598 33.2132 21.3696 32.8399 20.6511C32.6611 20.3087 32.5054 19.9299 32.3552 19.581C32.2974 19.4466 32.2988 19.2428 32.1778 19.174C32.0128 19.4291 31.7698 19.636 31.6419 19.9382C31.4377 20.4201 31.4123 21.0097 31.3356 21.6195L31.2848 21.6449C30.9303 21.559 30.8052 21.1939 30.6739 20.8807C30.3394 20.0884 30.2779 18.8114 30.5718 17.8997C30.6471 17.6636 30.9908 16.9194 30.8513 16.7021C30.7856 16.4845 30.5667 16.3584 30.4443 16.192C30.2843 15.9689 30.1476 15.73 30.0363 15.4791C29.7637 14.86 29.6361 14.1673 29.3488 13.5427C29.2119 13.2433 28.9796 12.9412 28.7888 12.6754C28.5767 12.3815 28.3402 12.1653 28.1766 11.8092C28.1188 11.683 28.0398 11.4802 28.1257 11.3499C28.1525 11.2626 28.1927 11.2265 28.2787 11.1983C28.4265 11.0842 28.8386 11.2358 28.9916 11.2991C29.401 11.4696 29.7423 11.6308 30.0885 11.8604C30.2535 11.9704 30.4216 12.1839 30.623 12.243H30.8527C31.2112 12.3248 31.6127 12.2671 31.9485 12.3692C32.5408 12.5489 33.0726 12.8298 33.5532 13.1347C35.022 14.0611 36.2227 15.3811 37.0443 16.9562C37.1773 17.2098 37.2337 17.4515 37.3506 17.7203C37.5857 18.2627 37.881 18.8213 38.1147 19.3517C38.3485 19.8822 38.5753 20.4153 38.9043 20.8557C39.0776 21.0867 39.7475 21.2101 40.0511 21.339C40.2645 21.429 40.6138 21.5229 40.8152 21.6452C41.2019 21.8776 41.5753 22.154 41.9379 22.4094C42.1177 22.5383 42.6739 22.8178 42.7021 23.0471L42.7003 23.0474ZM31.3095 13.3392C31.1553 13.3367 31.0015 13.3538 30.8516 13.3901V13.4155H30.8771C30.9658 13.5994 31.1228 13.7177 31.2328 13.8748L31.4879 14.4093L31.5133 14.3852C31.6718 14.2739 31.743 14.0951 31.743 13.8239C31.6787 13.7569 31.6704 13.6737 31.6154 13.5943C31.5429 13.4881 31.4023 13.4293 31.3095 13.3392Z" fill="#00618A"/>
</svg>
