<svg width="44" height="44" viewBox="0 0 44 44" fill="none" xmlns="http://www.w3.org/2000/svg">
<path d="M9.37432 0.037813C9.30557 0.0646255 7.3737 1.16531 5.08192 2.48256C2.30511 4.07894 0.878886 4.91975 0.802574 4.99881C0.737261 5.07616 0.685699 5.1645 0.652011 5.26006C0.594605 5.45394 0.59048 33.7862 0.648574 33.99C0.669542 34.0691 0.737949 34.1853 0.799824 34.2492C0.949699 34.4073 17.5281 43.9395 17.7295 43.9856C17.823 44.0079 17.9279 44.0041 18.032 43.9753C18.2582 43.9185 34.7933 34.4073 34.9404 34.2519C35.0005 34.1849 35.0693 34.0691 35.0916 33.9903C35.1205 33.8965 35.1312 32.416 35.1312 29.2964V24.7383L39.162 22.4232C42.9625 20.2379 43.1952 20.1011 43.2928 19.9513L43.3925 19.7897V14.8799C43.3925 9.53528 43.4028 9.83606 43.1914 9.64288C43.1347 9.59269 41.1984 8.46278 38.8842 7.13006L34.6809 4.71281H34.2137L30.1014 7.07438C27.8375 8.3765 25.9132 9.48991 25.8193 9.55041C25.7258 9.61228 25.6141 9.72641 25.5684 9.80925L25.4852 9.95259L25.4666 14.5778L25.4501 19.2046L22.0542 21.1606C20.1863 22.2344 18.6315 23.1234 18.5985 23.1316C18.5384 23.1485 18.5342 22.7081 18.5342 14.2058V5.25697L18.4449 5.10331C18.3328 4.91597 18.8354 5.21469 13.7891 2.31413C9.5572 -0.119624 9.65895 -0.0687495 9.37432 0.037813ZM13.2645 3.58084C15.0349 4.59663 16.4834 5.43709 16.4834 5.44741C16.4834 5.45806 14.931 6.35525 13.0339 7.44563L9.58229 9.42734L6.13689 7.44597C4.24386 6.35525 2.69251 5.45806 2.69251 5.44741C2.69251 5.43675 4.24111 4.53991 6.13448 3.45194L9.57164 1.47469L9.80882 1.60394C10.9629 2.25935 12.1148 2.91832 13.2645 3.58084ZM37.9004 8.13931C39.7642 9.2125 41.3063 10.0994 41.3207 10.1138C41.3599 10.1492 34.5234 14.079 34.4299 14.0748C34.3364 14.0721 27.5841 10.1784 27.5869 10.131C27.5903 10.077 34.3839 6.16859 34.4526 6.17925C34.4839 6.18681 36.0363 7.06956 37.9004 8.13931ZM5.60304 8.7065L8.8886 10.5982L8.90751 19.9643L8.9247 29.3322L9.00479 29.4587C9.04673 29.5254 9.12579 29.6165 9.18354 29.6584C9.23785 29.6979 11.0663 30.7398 13.246 31.9698L17.206 34.2062V38.1686C17.206 40.3432 17.1912 42.1273 17.1726 42.1273C17.1585 42.1273 13.7351 40.1682 9.56751 37.7699L1.99126 33.4128L1.98095 20.0183L1.97442 6.62784L2.14286 6.721C2.24014 6.77256 3.79526 7.66563 5.6027 8.70616L5.60304 8.7065ZM17.206 15.2996V23.9308L17.0729 24.0178C16.8925 24.1319 10.3124 27.9142 10.2901 27.9142C10.2798 27.9142 10.2715 24.0175 10.2715 19.2541L10.2756 10.5978L13.7131 8.62056C15.6034 7.53259 17.1623 6.64984 17.1809 6.65638C17.1943 6.66463 17.206 10.5545 17.206 15.2996ZM30.32 13.3145L33.7654 15.2955V19.2225C33.7654 22.9481 33.7617 23.1481 33.705 23.1265C33.6682 23.1124 32.1093 22.219 30.2389 21.1417L26.8324 19.1857V15.2601C26.8324 13.0989 26.8434 11.3331 26.8537 11.3331C26.8685 11.3331 28.427 12.2241 30.32 13.3145ZM42.0639 15.235C42.0639 17.3848 42.0495 19.1579 42.035 19.1751C42.0103 19.2146 35.1958 23.1412 35.1525 23.1412C35.1418 23.1412 35.1312 21.3761 35.1312 19.2146V15.289L38.5687 13.3103C40.4617 12.2241 42.0206 11.3331 42.035 11.3331C42.0533 11.3331 42.0639 13.0879 42.0639 15.235ZM32.9975 24.3832L17.8766 33.0138L11.0192 29.1132C11.0192 29.1132 26.1249 20.3765 26.1854 20.3992L32.9975 24.3832ZM33.7589 29.48L33.7472 33.4132L26.1751 37.7706C22.0089 40.1686 18.5844 42.1276 18.5672 42.1276C18.549 42.1276 18.5346 40.5264 18.5346 38.169V34.2066L26.1246 29.8781C30.295 27.4983 33.7218 25.5503 33.74 25.5461C33.7548 25.5461 33.7613 27.3158 33.7586 29.4797L33.7589 29.48Z" fill="#F0513F"/>
</svg>
