<svg width="44" height="44" viewBox="0 0 44 44" fill="none" xmlns="http://www.w3.org/2000/svg">
<path d="M7.79272 16.1562H42.0543V41.4803H7.79272V16.1562Z" fill="white"/>
<path d="M0.515625 21.9691V43.4535H43.4844V0.484741H0.515625V21.9691ZM35.1416 20.2504C36.1707 20.4892 37.1061 21.0275 37.8297 21.7972C38.228 22.212 38.5743 22.6737 38.8609 23.1722C38.8609 23.2272 37.0047 24.4819 35.8738 25.1832C35.8325 25.2107 35.6675 25.0319 35.4853 24.7604C35.2789 24.4041 34.9855 24.106 34.6327 23.8938C34.2798 23.6816 33.879 23.5623 33.4675 23.5469C32.1647 23.4576 31.3259 24.1416 31.3328 25.2657C31.3224 25.5455 31.3864 25.8231 31.5184 26.0701C31.8038 26.6647 32.3366 27.0188 34.0072 27.7407C37.0838 29.0641 38.4003 29.9372 39.2184 31.1782C40.1328 32.5532 40.3356 34.7738 39.7169 36.4169C39.0294 38.2044 37.345 39.4179 34.9628 39.8201C33.8748 39.9447 32.7755 39.9332 31.6903 39.7857C30.0271 39.5115 28.4951 38.713 27.3178 37.5066C26.9225 37.0701 26.1525 35.9322 26.2006 35.8497C26.3259 35.7562 26.458 35.6723 26.5959 35.5988L28.1875 34.7188L29.4216 34.0038L29.6794 34.3854C30.1146 35.0076 30.6683 35.538 31.3088 35.946C32.6838 36.6679 34.5606 36.5682 35.4887 35.7329C35.8004 35.4268 35.9948 35.0211 36.0381 34.5864C36.0815 34.1518 35.971 33.7157 35.7259 33.3541C35.3822 32.8763 34.6947 32.4741 32.7731 31.6354C30.5559 30.6797 29.6003 30.0885 28.7272 29.1466C28.1823 28.5249 27.7799 27.7917 27.5481 26.9982C27.3754 26.0915 27.3499 25.163 27.4725 24.2482C27.9297 22.1066 29.535 20.6113 31.8794 20.1679C32.9651 20.0337 34.0648 20.0639 35.1416 20.2572V20.2504ZM25.0559 22.0516V23.8116H19.4769V39.7032H15.5203V23.8082H9.9275V22.0894C9.90996 21.4967 9.92373 20.9035 9.96875 20.3122C9.99625 20.2813 13.4062 20.2813 17.5312 20.2813H25.0353L25.0559 22.0516Z" fill="#007ACC"/>
</svg>
