<svg width="44" height="44" viewBox="0 0 44 44" fill="none" xmlns="http://www.w3.org/2000/svg">
<path d="M32.2468 31.6635C32.5167 29.4178 32.4359 29.0881 34.1086 29.4522L34.5331 29.4893C35.8194 29.5477 37.5021 29.2824 38.4907 28.8231C40.6189 27.8355 41.8804 26.1872 39.7825 26.62C34.9961 27.6076 34.6672 25.9868 34.6672 25.9868C39.7213 18.4879 41.834 8.96844 40.0101 6.63816C35.036 0.282569 26.4261 3.28798 26.2821 3.36566L26.236 3.37426C25.2904 3.17798 24.2319 3.06076 23.0429 3.04151C20.8769 3.00576 19.2335 3.60938 17.9867 4.55469C17.9867 4.55469 2.62691 -1.7734 3.34157 12.5129C3.49351 15.5519 7.69757 35.509 12.7122 29.481C14.5451 27.2769 16.3161 25.4131 16.3161 25.4131C17.1954 25.9971 18.2486 26.2955 19.3528 26.1883L19.4384 26.1154C19.4115 26.389 19.4232 26.6568 19.4724 26.9737C18.1809 28.4171 18.5604 28.6705 15.9778 29.2019C13.3646 29.7402 14.8998 30.6989 15.9019 30.9495C17.117 31.2534 19.9279 31.6838 21.8274 29.0252L21.7518 29.3284C22.2585 29.734 22.2244 32.2424 22.2959 34.0344C22.3678 35.8267 22.4878 37.499 22.8532 38.4852C23.2186 39.4714 23.6496 42.0107 27.0438 41.2834C29.8804 40.677 32.0492 39.8021 32.2468 31.6635Z" fill="black"/>
<path d="M25.9386 43.0567C24.4375 43.0567 23.4599 42.4762 22.8662 41.9155C21.9701 41.0699 21.6146 39.9805 21.4022 39.3298L21.3104 39.0582C20.8828 37.9039 20.7377 36.2419 20.6518 34.1017C20.6387 33.7803 20.6298 33.4493 20.6198 33.0983C20.6126 32.8415 20.6036 32.5194 20.5906 32.1826C20.0498 32.4404 19.4757 32.6218 18.8849 32.7216C17.8265 32.9024 16.6887 32.8439 15.5024 32.5473C14.6654 32.3379 13.7957 31.9041 13.3 31.2342C11.8552 32.4995 10.4771 32.328 9.72637 32.0774C8.4019 31.6357 7.21665 30.3944 6.10255 28.2834C5.30883 26.7795 4.54124 24.8201 3.82074 22.4592C2.56605 18.348 1.7689 14.0178 1.69808 12.596C1.47533 8.14618 2.6733 4.96375 5.25796 3.13809C9.33518 0.258153 15.5127 1.95181 17.765 2.72078C19.2781 1.80881 21.0584 1.36503 23.0701 1.397C24.1505 1.41453 25.1793 1.5094 26.1349 1.6799C27.1318 1.3664 29.1008 0.916434 31.3548 0.944622C35.5076 0.994122 38.9489 2.6125 41.306 5.62478C42.9883 7.7739 42.1564 12.287 41.5112 14.7861C40.603 18.3012 39.0118 22.0399 37.0572 25.2945C37.588 25.2983 38.357 25.2347 39.4501 25.0088C41.6068 24.5637 42.2376 25.7201 42.4087 26.2377C43.0945 28.3147 40.1135 29.8842 39.1837 30.316C37.9922 30.8691 36.0497 31.206 34.4588 31.1331L34.3894 31.1286L33.9714 31.0918L33.9301 31.4404L33.8903 31.7811C33.7834 35.9057 33.1942 38.5179 31.9818 40.2438C30.7109 42.0533 28.9447 42.5604 27.3889 42.8938C26.8582 43.0072 26.3759 43.0567 25.9386 43.0567ZM22.7796 28.0448C23.7486 28.8203 23.8335 30.2796 23.9095 33.0065C23.9191 33.3468 23.9281 33.6689 23.9401 33.9697C23.9765 34.8807 24.0621 37.0136 24.3962 37.9149C24.4433 38.0425 24.4856 38.1717 24.5303 38.3089C24.9026 39.4487 25.0892 40.0204 26.699 39.6763C28.0503 39.3865 28.745 39.1267 29.2888 38.3525C30.0791 37.2271 30.5212 34.9632 30.6023 31.6236L32.2465 31.6635L30.6136 31.4676L30.6618 31.0599C30.8182 29.7158 30.9309 28.7451 31.8291 28.1029C32.55 27.588 33.3712 27.6378 34.0254 27.7557C33.3066 27.2126 33.1079 26.5757 33.055 26.3144L32.9178 25.6389L33.3031 25.0673C35.5227 21.7742 37.3529 17.7268 38.325 13.9628C39.3239 10.0952 39.0194 8.04134 38.7148 7.6529C34.683 2.50112 27.6914 4.62825 26.9613 4.86956L26.8379 4.93625L26.2191 5.0514L25.9022 4.98575C25.0284 4.80425 24.0576 4.70387 23.0171 4.68703C21.3822 4.65953 20.0633 5.0459 18.9818 5.86643L18.2314 6.43534L17.3607 6.07681C15.5003 5.31609 10.0361 3.78675 7.15271 5.82897C5.55221 6.96265 4.82312 9.18397 4.98537 12.4314C5.03899 13.5035 5.7674 17.5622 6.96915 21.4985C8.6298 26.9383 10.1389 28.7454 10.769 28.9554C10.879 28.9926 11.1643 28.7708 11.4482 28.4298C12.6321 27.0107 13.858 25.627 15.1243 24.2808L16.0765 23.2787L17.2277 24.0436C17.6917 24.3519 18.2036 24.5269 18.7292 24.5599L21.4747 22.2183L21.077 26.2773C21.0681 26.3684 21.0636 26.4925 21.0993 26.7228L21.219 27.4921L20.6999 28.0723L20.6401 28.1397L22.1485 28.8358L22.7796 28.0448Z" fill="black"/>
<path d="M39.7825 26.62C34.9958 27.6076 34.6669 25.9868 34.6669 25.9868C39.721 18.4876 41.8337 8.96777 40.0104 6.63818C35.0364 0.28293 26.4258 3.28834 26.2821 3.36637L26.2357 3.37462C25.29 3.17834 24.2316 3.06146 23.0419 3.04221C20.8759 3.00681 19.2332 3.61009 17.9864 4.5554C17.9864 4.5554 2.62626 -1.77235 3.34057 12.5136C3.49251 15.553 7.69657 35.5101 12.7112 29.4821C14.5441 27.278 16.3147 25.4141 16.3147 25.4141C17.1944 25.9982 18.2473 26.2966 19.3511 26.1893L19.437 26.1164C19.4102 26.3901 19.4226 26.6578 19.4714 26.9748C18.1796 28.4182 18.5591 28.6715 15.9765 29.203C13.3633 29.7413 14.8985 30.7 15.9009 30.9506C17.1157 31.2545 19.9269 31.6848 21.8261 29.0263L21.7501 29.3295C22.2564 29.7351 22.6119 31.9667 22.5524 33.9897C22.4929 36.0126 22.4527 37.4017 22.8518 38.4866C23.2506 39.5715 23.6479 42.0121 27.0428 41.2847C29.8794 40.677 31.3493 39.1016 31.5542 36.474C31.6993 34.6057 32.0275 34.8821 32.0485 33.2118L32.3122 32.4211C32.616 29.8887 32.3603 29.072 34.1083 29.4518L34.5328 29.489C35.8191 29.5474 37.5024 29.282 38.4907 28.8228C40.6185 27.8359 41.8804 26.1872 39.7825 26.62Z" fill="#336791"/>
<path d="M26.1101 42.0431C23.2804 42.0431 22.3839 39.8021 22.0171 38.8857C21.4801 37.5427 21.3643 32.3307 21.4839 28.0566C21.4857 27.9845 21.5017 27.9135 21.5311 27.8476C21.5604 27.7817 21.6025 27.7223 21.6549 27.6728C21.7073 27.6233 21.769 27.5846 21.8364 27.559C21.9038 27.5334 21.9756 27.5215 22.0477 27.5237C22.1197 27.5257 22.1906 27.5418 22.2563 27.5712C22.3221 27.6006 22.3814 27.6427 22.4309 27.695C22.4804 27.7473 22.5191 27.8089 22.5447 27.8762C22.5704 27.9435 22.5826 28.0152 22.5805 28.0871C22.4426 33.0169 22.6382 37.4842 23.0356 38.4784C23.6557 40.0283 24.5962 41.3841 27.2551 40.8145C29.7793 40.2731 30.7246 39.3161 31.1457 36.8751C31.4688 35.002 32.1079 29.6732 32.1866 28.6217C32.1919 28.5498 32.2112 28.4797 32.2437 28.4154C32.2761 28.351 32.3209 28.2937 32.3755 28.2467C32.4301 28.1997 32.4934 28.1639 32.5619 28.1414C32.6303 28.1189 32.7026 28.1102 32.7744 28.1157C32.9194 28.1267 33.0541 28.1947 33.149 28.3049C33.2438 28.4151 33.2911 28.5585 33.2804 28.7035C33.1982 29.7983 32.5623 35.1168 32.2268 37.0618C31.7297 39.9448 30.4445 41.2524 27.4851 41.887C26.9822 41.9946 26.5254 42.0427 26.1101 42.0431ZM10.7665 31.0977C10.5191 31.0969 10.2735 31.0563 10.0391 30.9774C8.20108 30.3641 6.45036 27.3708 4.83543 22.0794C3.60618 18.0517 2.82724 13.8476 2.75883 12.4812C2.55636 8.43049 3.5993 5.56464 5.85946 3.9638C10.3306 0.795799 17.8522 3.81255 18.1702 3.94249C18.3049 3.99751 18.4122 4.10378 18.4685 4.23794C18.5249 4.37209 18.5256 4.52313 18.4706 4.65783C18.4156 4.79253 18.3093 4.89986 18.1752 4.9562C18.041 5.01254 17.89 5.01329 17.7553 4.95827C17.6827 4.92871 10.4702 2.03914 6.49127 4.8603C4.55871 6.23049 3.67149 8.7763 3.85402 12.4266C3.91143 13.5778 4.63915 17.6808 5.88421 21.7591C7.3259 26.4829 8.96661 29.4635 10.386 29.9369C10.6087 30.0111 11.2866 30.237 12.2556 29.0716C13.3856 27.7144 14.5581 26.3931 15.7711 25.1096C15.8726 25.0083 16.0097 24.9509 16.1531 24.9494C16.2965 24.948 16.4347 25.0027 16.5382 25.1019C16.6417 25.2011 16.7023 25.3369 16.7069 25.4802C16.7116 25.6234 16.66 25.7629 16.5631 25.8686C16.5466 25.8858 14.897 27.6104 13.0992 29.7732C12.2477 30.7973 11.4316 31.0977 10.7665 31.0977ZM34.6327 26.476C34.5333 26.4759 34.4357 26.4487 34.3505 26.3974C34.2653 26.3461 34.1957 26.2727 34.149 26.1849C34.1023 26.0971 34.0804 25.9982 34.0856 25.8989C34.0907 25.7996 34.1228 25.7036 34.1783 25.6211C39.2874 18.0397 41.0808 8.87908 39.5449 6.91627C37.6116 4.44608 34.8819 3.15599 31.431 3.08139C28.8759 3.02639 26.8451 3.67883 26.513 3.79261L26.4295 3.82664C26.0957 3.93149 25.8396 3.74861 25.743 3.5348C25.6879 3.4123 25.6796 3.27388 25.7195 3.14565C25.7595 3.01742 25.845 2.90824 25.9599 2.83871C25.9757 2.82942 26.0259 2.80811 26.1074 2.77821C26.6715 2.57161 28.7333 1.95286 31.287 1.98208C35.1054 2.02264 38.2596 3.49492 40.4081 6.24046C41.4245 7.53949 41.4269 10.5322 40.4146 14.4516C39.3826 18.4477 37.4408 22.7422 35.0875 26.2343C34.9823 26.3914 34.8091 26.476 34.6327 26.476ZM34.894 29.9857C34.0215 29.9857 33.2395 29.8626 32.7713 29.5821C32.2901 29.2937 32.1983 28.9018 32.1862 28.6939C32.0549 26.3873 33.3275 25.9858 33.9765 25.8026C33.8861 25.6658 33.7575 25.5049 33.6245 25.3389C33.246 24.8659 32.7276 24.2182 32.3282 23.2496C32.2656 23.0983 32.0697 22.7466 31.8428 22.3393C30.6126 20.1331 28.0526 15.5423 29.6971 13.1914C30.4582 12.1035 31.9738 11.6751 34.2068 11.9141C33.5499 9.91274 30.4218 3.65236 22.9992 3.53067C20.7669 3.49355 18.9361 4.18002 17.5604 5.56911C14.4804 8.67971 14.5917 14.3079 14.5935 14.3643C14.5954 14.4363 14.5831 14.508 14.5572 14.5752C14.5314 14.6425 14.4927 14.704 14.4431 14.7562C14.3935 14.8085 14.3341 14.8505 14.2683 14.8798C14.2025 14.9091 14.1316 14.9251 14.0596 14.927C13.9876 14.9289 13.9159 14.9166 13.8487 14.8908C13.7815 14.865 13.7199 14.8262 13.6677 14.7766C13.6154 14.7271 13.5735 14.6677 13.5442 14.6019C13.5149 14.5361 13.4988 14.4652 13.4969 14.3932C13.49 14.1433 13.3752 8.23696 16.7811 4.79705C18.3751 3.18727 20.4733 2.39252 23.0174 2.43411C27.766 2.51214 30.8226 4.9263 32.5503 6.93758C34.4337 9.12967 35.357 11.5476 35.433 12.3547C35.4897 12.9549 35.059 13.0749 34.972 13.0928L34.774 13.0972C32.5826 12.7463 31.1766 12.99 30.5954 13.8205C29.3445 15.6083 31.7662 19.9509 32.8002 21.8055C33.0642 22.2785 33.2546 22.6205 33.3419 22.8316C33.6816 23.6552 34.1246 24.2086 34.4804 24.6534C34.7936 25.0446 35.0648 25.3839 35.1617 25.782C35.2068 25.861 35.8458 26.8063 39.6377 26.0236C40.5882 25.8277 41.1581 25.9951 41.3324 26.5221C41.6751 27.5585 39.7522 28.7674 38.6876 29.2617C37.7337 29.7052 36.2112 29.9857 34.894 29.9857ZM33.2797 28.6035C33.4 28.7248 34.0019 28.9341 35.2484 28.8805C36.3566 28.8331 37.5254 28.5921 38.2266 28.2666C39.1235 27.85 39.7223 27.3842 40.0323 27.0662L39.8605 27.0978C37.436 27.5983 35.721 27.5316 34.7633 26.8995C34.6989 26.857 34.637 26.811 34.5777 26.7616C34.4739 26.8026 34.378 26.8294 34.3096 26.8486C33.7665 27.0009 33.2048 27.1587 33.2797 28.6035ZM17.6178 31.668C17.0155 31.668 16.3816 31.5858 15.7344 31.4239C15.0637 31.2562 13.9331 30.7512 13.9503 29.9217C13.9699 28.9912 15.3232 28.7121 15.8327 28.6072C17.6731 28.2281 17.7931 28.0761 18.3682 27.3457C18.5359 27.1329 18.7446 26.8679 19.0292 26.5502C19.4517 26.0772 19.9133 25.8376 20.4015 25.8376C20.7414 25.8376 21.0202 25.9528 21.2045 26.0295C21.7916 26.2728 22.2814 26.8613 22.4829 27.565C22.6647 28.1999 22.5777 28.8111 22.2388 29.2858C21.1261 30.844 19.528 31.668 17.6178 31.668ZM15.1352 29.9688C15.3006 30.0967 15.6319 30.2676 16.0008 30.3597C16.5614 30.4999 17.1052 30.5711 17.6181 30.5711C19.1808 30.5711 20.4355 29.9241 21.3468 28.6481C21.5369 28.3821 21.4798 28.0442 21.4289 27.8665C21.3224 27.4942 21.0577 27.1556 20.7851 27.0425C20.6373 26.9813 20.5146 26.9346 20.4018 26.9346C20.3413 26.9346 20.1571 26.9346 19.847 27.2814C19.633 27.522 19.4273 27.7699 19.2303 28.0246C18.5139 28.9341 18.1856 29.2428 16.0544 29.6818C15.5343 29.7884 15.2676 29.897 15.1352 29.9688ZM19.3527 27.4388C19.2217 27.4386 19.0952 27.3916 18.9959 27.3062C18.8966 27.2209 18.8311 27.1028 18.8113 26.9734C18.7975 26.8824 18.7883 26.7907 18.7838 26.6987C17.3868 26.6726 16.0389 26.0731 15.0156 25.0054C13.7217 23.6555 13.1329 21.7852 13.4003 19.8743C13.6908 17.7991 13.5821 15.9672 13.5237 14.9831C13.5076 14.7094 13.4959 14.5118 13.4966 14.375C13.4976 14.2014 13.501 13.7411 15.0396 12.9611C15.5869 12.6837 16.6841 12.1997 17.8828 12.0756C19.8686 11.8704 21.1776 12.7549 21.5695 14.5664C22.6272 19.4573 21.6534 21.6205 20.9422 23.2004C20.8098 23.4946 20.6847 23.7724 20.5847 24.0416L20.4963 24.2787C20.1206 25.2863 19.7958 26.1566 19.8955 26.8067C19.9064 26.8779 19.9032 26.9505 19.8861 27.0205C19.8689 27.0904 19.8382 27.1563 19.7956 27.2144C19.7529 27.2725 19.6993 27.3216 19.6377 27.3589C19.5761 27.3962 19.5078 27.4211 19.4366 27.432L19.3527 27.4388ZM14.5969 14.5269L14.6182 14.9184C14.6787 15.9407 14.7915 17.843 14.4862 20.0265C14.2659 21.6026 14.7471 23.1409 15.8072 24.2464C16.645 25.1202 17.7474 25.6025 18.8804 25.6025H18.9037C19.0306 25.068 19.2413 24.5036 19.4682 23.8955L19.5558 23.6596C19.6689 23.3558 19.8013 23.0615 19.9415 22.7501C20.6259 21.2293 21.4781 19.3363 20.4967 14.7985C20.3025 13.8995 19.8312 13.3795 19.0567 13.2079C17.4658 12.8566 15.095 14.0532 14.5969 14.5269ZM17.9072 14.2942C17.8797 14.488 18.2623 15.0057 18.7614 15.0748C19.2595 15.1446 19.6858 14.7397 19.7129 14.5458C19.7401 14.3519 19.3578 14.1381 18.8587 14.0687C18.3596 13.9992 17.9337 14.1003 17.9072 14.2942ZM18.8759 15.2656L18.736 15.256C18.4266 15.213 18.1138 15.0181 17.8996 14.7342C17.8244 14.6345 17.7016 14.4413 17.7261 14.2687C17.7608 14.0157 18.0695 13.8641 18.5511 13.8641C18.6586 13.8641 18.7707 13.8721 18.8835 13.8879C19.1468 13.9243 19.3912 14.0003 19.5716 14.101C19.8845 14.2756 19.9075 14.4705 19.8934 14.5712C19.8549 14.8507 19.4104 15.2656 18.8759 15.2656ZM18.0891 14.3265C18.1045 14.4461 18.4008 14.8407 18.7865 14.894L18.8762 14.9002C19.2324 14.9002 19.4984 14.62 19.5297 14.5283C19.4967 14.4657 19.2678 14.3103 18.8336 14.2498C18.7401 14.2366 18.6458 14.2298 18.5514 14.2295C18.2723 14.2295 18.1241 14.2925 18.0891 14.3265ZM33.0783 13.8985C33.1054 14.0924 32.7232 14.6101 32.2244 14.6795C31.726 14.749 31.2994 14.3444 31.2719 14.1505C31.2457 13.9566 31.628 13.7425 32.1264 13.6734C32.6249 13.6036 33.0508 13.705 33.0783 13.8985ZM32.1092 14.7785C31.6294 14.7785 31.2151 14.4052 31.1811 14.1629C31.1416 13.872 31.6204 13.651 32.1134 13.5826C32.222 13.5675 32.3296 13.5599 32.4331 13.5599C32.8586 13.5599 33.1405 13.6847 33.1687 13.8861C33.1869 14.0164 33.0869 14.2175 32.9146 14.399C32.8009 14.5183 32.562 14.7249 32.2364 14.7699L32.1092 14.7785ZM32.4334 13.7428C32.3381 13.7428 32.24 13.7498 32.1391 13.7638C31.6438 13.8329 31.3482 14.0316 31.3626 14.1381C31.3791 14.2553 31.6954 14.596 32.1096 14.596L32.2117 14.5888C32.4822 14.5513 32.6854 14.3746 32.7823 14.2729C32.9346 14.113 32.9951 13.9625 32.9879 13.9112C32.9782 13.8432 32.7954 13.7428 32.4334 13.7428ZM33.7964 25.0326C33.697 25.0326 33.5995 25.0057 33.5143 24.9546C33.429 24.9035 33.3593 24.8301 33.3126 24.7425C33.2658 24.6548 33.2438 24.556 33.2488 24.4568C33.2539 24.3575 33.2858 24.2615 33.3412 24.1791C34.5093 22.4345 34.2955 20.6556 34.0889 18.9351C34.0006 18.2023 33.9098 17.4443 33.9332 16.7169C33.9572 15.9686 34.0525 15.3512 34.1442 14.7541C34.2532 14.0467 34.3563 13.3784 34.3137 12.5851C34.3098 12.5131 34.3201 12.4412 34.3441 12.3732C34.368 12.3053 34.4051 12.2428 34.4532 12.1892C34.5013 12.1356 34.5595 12.092 34.6244 12.0609C34.6894 12.0298 34.7598 12.0118 34.8317 12.0079C34.9037 12.004 34.9756 12.0143 35.0435 12.0383C35.1115 12.0622 35.174 12.0993 35.2276 12.1474C35.3358 12.2445 35.4011 12.3807 35.4089 12.5259C35.4577 13.4327 35.3412 14.189 35.2284 14.9208C35.1415 15.4856 35.0514 16.0696 35.0297 16.752C35.0088 17.3962 35.0909 18.0802 35.1779 18.8042C35.3979 20.6336 35.6471 22.7071 34.2529 24.7892C34.2026 24.8641 34.1346 24.9255 34.055 24.9679C33.9754 25.0104 33.8866 25.0326 33.7964 25.0326Z" fill="white"/>
</svg>
