<svg width="21" height="21" viewBox="0 0 21 21" fill="none" xmlns="http://www.w3.org/2000/svg">
<path d="M11.9675 10.6752L3.00083 9.77184L3 4.06184C3.00011 3.90936 3.03917 3.75944 3.11349 3.62629C3.1878 3.49314 3.2949 3.38119 3.42462 3.30106C3.55434 3.22092 3.70239 3.17525 3.85472 3.16839C4.00704 3.16152 4.1586 3.19369 4.295 3.26184L17.505 9.86684C17.6534 9.94128 17.7782 10.0555 17.8654 10.1968C17.9525 10.3381 17.9987 10.5008 17.9987 10.6668C17.9987 10.8329 17.9525 10.9956 17.8654 11.1369C17.7782 11.2782 17.6534 11.3924 17.505 11.4668L4.29667 18.0718C4.16026 18.14 4.00871 18.1722 3.85638 18.1653C3.70406 18.1584 3.55601 18.1128 3.42629 18.0326C3.29656 17.9525 3.18947 17.8405 3.11515 17.7074C3.04084 17.5742 3.00178 17.4243 3.00167 17.2718V11.5618L11.9675 10.6752Z" fill="white"/>
</svg>
