<svg width="50" height="44" viewBox="0 0 50 44" fill="none" xmlns="http://www.w3.org/2000/svg">
<path d="M40.9179 14.2467C40.3921 14.0664 39.8619 13.8993 39.3277 13.7455C39.4174 13.3789 39.5 13.0166 39.5734 12.6608C40.7772 6.81707 39.9902 2.10927 37.3022 0.55923C34.7249 -0.926736 30.51 0.622721 26.2531 4.32741C25.8336 4.69316 25.4234 5.06947 25.0229 5.45597C24.7548 5.19897 24.4819 4.94696 24.2044 4.70006C19.7431 0.738897 15.2713 -0.930595 12.5861 0.623879C10.0112 2.11448 9.24868 6.54014 10.3325 12.0784C10.4403 12.6269 10.562 13.1725 10.6976 13.7148C10.0646 13.8947 9.45382 14.0861 8.86927 14.2899C3.63867 16.1136 0.29834 18.9715 0.29834 21.9359C0.29834 24.9976 3.88434 28.0685 9.33224 29.9306C9.77392 30.0809 10.2193 30.2202 10.6679 30.3484C10.5222 30.9325 10.3929 31.5206 10.28 32.1119C9.24675 37.554 10.0536 41.8751 12.6216 43.3562C15.274 44.8858 19.7257 43.3137 24.0603 39.5245C24.4117 39.2164 24.7555 38.8997 25.0912 38.5745C25.5249 38.993 25.9702 39.3993 26.4266 39.793C30.6255 43.406 34.7724 44.8649 37.3379 43.3797C39.9877 41.8457 40.849 37.2037 39.7309 31.5561C39.6428 31.1136 39.544 30.6734 39.4346 30.2357C39.7473 30.1431 40.0541 30.0477 40.3532 29.9485C46.0169 28.0722 49.7019 25.0385 49.7019 21.9359C49.7019 18.9607 46.2537 16.0835 40.9179 14.2467ZM39.6896 27.9454C39.4191 28.0347 39.1425 28.1212 38.8597 28.2049C38.2345 26.2255 37.3907 24.1209 36.3581 21.9461C37.3435 19.8233 38.1548 17.7455 38.7625 15.779C39.2679 15.9253 39.7583 16.0795 40.2311 16.2421C44.8028 17.8161 47.5914 20.1429 47.5914 21.9359C47.5914 23.8457 44.5797 26.3249 39.6896 27.9454ZM37.6605 31.966C38.155 34.4632 38.2254 36.7211 37.8979 38.4863C37.6038 40.0724 37.0121 41.1298 36.2803 41.5534C34.7235 42.4546 31.394 41.2832 27.8032 38.1931C27.3787 37.8271 26.9645 37.4494 26.5609 37.0603C27.9531 35.5379 29.3443 33.7681 30.7022 31.8023C33.0905 31.5904 35.3469 31.2438 37.3931 30.7708C37.4941 31.1776 37.5832 31.576 37.6605 31.966ZM17.1411 41.3976C15.62 41.9347 14.4085 41.9501 13.6761 41.5279C12.1177 40.6292 11.4699 37.1595 12.3536 32.5056C12.4586 31.9556 12.5789 31.4087 12.7143 30.8654C14.7379 31.3131 16.9778 31.635 19.3718 31.8292C20.7389 33.7526 22.1702 35.5205 23.6128 37.0686C23.3062 37.3653 22.9924 37.6543 22.6716 37.9355C20.7547 39.611 18.8339 40.7998 17.1411 41.3976ZM10.015 27.9336C7.60601 27.1102 5.61655 26.0401 4.25294 24.8723C3.0275 23.8231 2.40899 22.7812 2.40899 21.9359C2.40899 20.1369 5.09087 17.8424 9.56401 16.2829C10.1069 16.0937 10.675 15.9152 11.2646 15.7477C11.8829 17.7586 12.6938 19.8611 13.6724 21.9872C12.6811 24.1448 11.8586 26.2809 11.2343 28.3155C10.8248 28.1982 10.4182 28.0709 10.015 27.9336ZM12.4037 11.6729C11.4753 6.92804 12.0919 3.34879 13.6437 2.45046C15.2964 1.49365 18.9511 2.85784 22.8032 6.27827C23.0544 6.5018 23.3015 6.72988 23.5444 6.96239C22.109 8.50374 20.6908 10.2585 19.3359 12.1706C17.0124 12.386 14.7882 12.7318 12.7434 13.1951C12.6174 12.6907 12.5041 12.183 12.4037 11.6729ZM33.7142 16.9353C33.2312 16.1011 32.7303 15.2773 32.2119 14.4646C33.7881 14.6639 35.2984 14.9285 36.7167 15.252C36.2909 16.6167 35.7602 18.0434 35.1356 19.5063C34.6789 18.6399 34.2051 17.7828 33.7142 16.9353ZM25.0238 8.47093C25.9972 9.52558 26.9722 10.703 27.9311 11.9805C25.9859 11.8886 24.0374 11.8882 22.0921 11.9794C23.0519 10.7136 24.0352 9.53774 25.0238 8.47093ZM16.2777 16.9496C15.793 17.7902 15.3279 18.642 14.883 19.5043C14.2685 18.0467 13.7427 16.6134 13.3133 15.2294C14.7228 14.914 16.226 14.6562 17.7922 14.4605C17.268 15.2782 16.763 16.1083 16.2777 16.9496ZM17.8372 29.5612C16.219 29.3806 14.6933 29.1361 13.2841 28.8292C13.7203 27.4205 14.2577 25.9567 14.8855 24.4678C15.3322 25.3308 15.7992 26.1831 16.286 27.0241C16.7866 27.8886 17.3049 28.7355 17.8372 29.5612ZM25.0821 35.5495C24.0817 34.4703 23.084 33.2763 22.1096 31.9922C23.0556 32.0293 24.0199 32.0482 25.0001 32.0482C26.0071 32.0482 27.0025 32.0256 27.9823 31.982C27.0202 33.2893 26.049 34.485 25.0821 35.5495ZM35.1554 24.3918C35.8158 25.8971 36.3724 27.3531 36.8143 28.7378C35.382 29.0647 33.8354 29.3279 32.2059 29.5234C32.7281 28.6956 33.2337 27.8575 33.7225 27.0096C34.2196 26.1478 34.6973 25.2749 35.1554 24.3918ZM31.8944 25.9552C31.146 27.2551 30.3556 28.5304 29.5244 29.7791C28.0187 29.8858 26.5096 29.9388 25.0001 29.9379C23.4626 29.9379 21.9672 29.8901 20.5272 29.7967C19.6742 28.5509 18.8687 27.2734 18.1124 25.9667C17.3595 24.667 16.6565 23.3392 16.0046 21.9861C16.6549 20.6327 17.3559 19.3042 18.1062 18.0035L18.106 18.0037C18.8559 16.7026 19.655 15.4305 20.5015 14.1902C21.9707 14.079 23.4773 14.0211 24.9999 14.0211C26.5295 14.0211 28.0382 14.0796 29.507 14.1915C30.345 15.43 31.139 16.6977 31.8875 17.9923C32.6401 19.2902 33.3504 20.6122 34.0172 21.9562C33.3572 23.3139 32.6492 24.6477 31.8944 25.9552ZM36.2481 2.38735C37.9023 3.34146 38.5457 7.18895 37.5063 12.2345C37.4397 12.5566 37.3657 12.8841 37.2844 13.2168C35.2346 12.7436 33.0089 12.3918 30.6786 12.1731C29.3212 10.24 27.9145 8.48251 26.5025 6.96104C26.8726 6.60433 27.2514 6.25685 27.6388 5.91893C31.2861 2.74495 34.695 1.49172 36.2481 2.38735ZM25.0001 17.5243C27.4365 17.5243 29.4117 19.4995 29.4117 21.9359C29.4117 24.3723 27.4365 26.3475 25.0001 26.3475C22.5637 26.3475 20.5885 24.3723 20.5885 21.9359C20.5885 19.4995 22.5637 17.5243 25.0001 17.5243Z" fill="#00D8FF"/>
</svg>
