<svg width="44" height="44" viewBox="0 0 44 44" fill="none" xmlns="http://www.w3.org/2000/svg">
<path d="M16.5 5.5H22V16.5H16.5C15.0413 16.5 13.6424 15.9205 12.6109 14.8891C11.5795 13.8576 11 12.4587 11 11C11 9.54131 11.5795 8.14236 12.6109 7.11091C13.6424 6.07946 15.0413 5.5 16.5 5.5Z" fill="#F4511E"/>
<path d="M27.5 16.5H22V5.5H27.5C28.9587 5.5 30.3576 6.07946 31.3891 7.11091C32.4205 8.14236 33 9.54131 33 11C33 12.4587 32.4205 13.8576 31.3891 14.8891C30.3576 15.9205 28.9587 16.5 27.5 16.5Z" fill="#FF8A65"/>
<path d="M22 22C22 25.0376 24.4624 27.5 27.5 27.5C30.5376 27.5 33 25.0376 33 22C33 18.9624 30.5376 16.5 27.5 16.5C24.4624 16.5 22 18.9624 22 22Z" fill="#29B6F6"/>
<path d="M16.5 16.5H22V27.5H16.5C15.0413 27.5 13.6424 26.9205 12.6109 25.8891C11.5795 24.8576 11 23.4587 11 22C11 20.5413 11.5795 19.1424 12.6109 18.1109C13.6424 17.0795 15.0413 16.5 16.5 16.5Z" fill="#7C4DFF"/>
<path d="M16.5 27.5H22V33C22 34.4587 21.4205 35.8576 20.3891 36.8891C19.3576 37.9205 17.9587 38.5 16.5 38.5C15.0413 38.5 13.6424 37.9205 12.6109 36.8891C11.5795 35.8576 11 34.4587 11 33C11 31.5413 11.5795 30.1424 12.6109 29.1109C13.6424 28.0795 15.0413 27.5 16.5 27.5Z" fill="#00E676"/>
</svg>
