<svg width="20" height="21" viewBox="0 0 20 21" fill="none" xmlns="http://www.w3.org/2000/svg">
<path d="M10.0001 2.33325C8.90573 2.33325 7.8221 2.5488 6.81105 2.96759C5.80001 3.38638 4.88135 4.00021 4.10752 4.77403C2.54472 6.33683 1.66675 8.45645 1.66675 10.6666C1.66675 14.3499 4.05841 17.4749 7.36675 18.5833C7.78342 18.6499 7.91675 18.3916 7.91675 18.1666V16.7583C5.60841 17.2583 5.11675 15.6416 5.11675 15.6416C4.73341 14.6749 4.19175 14.4166 4.19175 14.4166C3.43341 13.8999 4.25008 13.9166 4.25008 13.9166C5.08341 13.9749 5.52508 14.7749 5.52508 14.7749C6.25008 16.0416 7.47508 15.6666 7.95008 15.4666C8.02508 14.9249 8.24175 14.5583 8.47508 14.3499C6.62508 14.1416 4.68341 13.4249 4.68341 10.2499C4.68341 9.32492 5.00008 8.58325 5.54175 7.99159C5.45841 7.78325 5.16675 6.91659 5.62508 5.79159C5.62508 5.79159 6.32508 5.56659 7.91675 6.64159C8.57508 6.45825 9.29175 6.36659 10.0001 6.36659C10.7084 6.36659 11.4251 6.45825 12.0834 6.64159C13.6751 5.56659 14.3751 5.79159 14.3751 5.79159C14.8334 6.91659 14.5417 7.78325 14.4584 7.99159C15.0001 8.58325 15.3167 9.32492 15.3167 10.2499C15.3167 13.4333 13.3667 14.1333 11.5084 14.3416C11.8084 14.5999 12.0834 15.1083 12.0834 15.8833V18.1666C12.0834 18.3916 12.2167 18.6583 12.6417 18.5833C15.9501 17.4666 18.3334 14.3499 18.3334 10.6666C18.3334 9.57224 18.1179 8.4886 17.6991 7.47756C17.2803 6.46651 16.6665 5.54785 15.8926 4.77403C15.1188 4.00021 14.2002 3.38638 13.1891 2.96759C12.1781 2.5488 11.0944 2.33325 10.0001 2.33325Z" fill="white"/>
</svg>
