<svg width="20" height="21" viewBox="0 0 20 21" fill="none" xmlns="http://www.w3.org/2000/svg">
<path d="M6.50008 2.33325H13.5001C16.1667 2.33325 18.3334 4.49992 18.3334 7.16659V14.1666C18.3334 15.4485 17.8242 16.6778 16.9178 17.5843C16.0113 18.4907 14.782 18.9999 13.5001 18.9999H6.50008C3.83341 18.9999 1.66675 16.8333 1.66675 14.1666V7.16659C1.66675 5.88471 2.17597 4.65533 3.0824 3.7489C3.98882 2.84248 5.2182 2.33325 6.50008 2.33325ZM6.33341 3.99992C5.53777 3.99992 4.7747 4.31599 4.21209 4.8786C3.64949 5.44121 3.33341 6.20427 3.33341 6.99992V14.3333C3.33341 15.9916 4.67508 17.3333 6.33341 17.3333H13.6667C14.4624 17.3333 15.2255 17.0172 15.7881 16.4546C16.3507 15.892 16.6667 15.1289 16.6667 14.3333V6.99992C16.6667 5.34159 15.3251 3.99992 13.6667 3.99992H6.33341ZM14.3751 5.24992C14.6513 5.24992 14.9163 5.35967 15.1117 5.55502C15.307 5.75037 15.4167 6.01532 15.4167 6.29159C15.4167 6.56785 15.307 6.8328 15.1117 7.02816C14.9163 7.22351 14.6513 7.33325 14.3751 7.33325C14.0988 7.33325 13.8339 7.22351 13.6385 7.02816C13.4432 6.8328 13.3334 6.56785 13.3334 6.29159C13.3334 6.01532 13.4432 5.75037 13.6385 5.55502C13.8339 5.35967 14.0988 5.24992 14.3751 5.24992ZM10.0001 6.49992C11.1052 6.49992 12.165 6.93891 12.9464 7.72031C13.7278 8.50171 14.1667 9.56152 14.1667 10.6666C14.1667 11.7717 13.7278 12.8315 12.9464 13.6129C12.165 14.3943 11.1052 14.8333 10.0001 14.8333C8.89501 14.8333 7.83521 14.3943 7.0538 13.6129C6.2724 12.8315 5.83341 11.7717 5.83341 10.6666C5.83341 9.56152 6.2724 8.50171 7.0538 7.72031C7.83521 6.93891 8.89501 6.49992 10.0001 6.49992ZM10.0001 8.16659C9.33704 8.16659 8.70116 8.42998 8.23231 8.89882C7.76347 9.36766 7.50008 10.0035 7.50008 10.6666C7.50008 11.3296 7.76347 11.9655 8.23231 12.4344C8.70116 12.9032 9.33704 13.1666 10.0001 13.1666C10.6631 13.1666 11.299 12.9032 11.7678 12.4344C12.2367 11.9655 12.5001 11.3296 12.5001 10.6666C12.5001 10.0035 12.2367 9.36766 11.7678 8.89882C11.299 8.42998 10.6631 8.16659 10.0001 8.16659Z" fill="white"/>
</svg>
