<svg width="20" height="21" viewBox="0 0 20 21" fill="none" xmlns="http://www.w3.org/2000/svg">
<path d="M17.0582 2.33312H2.94155C2.78287 2.33092 2.6253 2.36 2.47786 2.41869C2.33041 2.47739 2.19597 2.56456 2.08222 2.67522C1.96846 2.78588 1.87762 2.91786 1.81488 3.06363C1.75214 3.2094 1.71873 3.36611 1.71655 3.52479V17.8081C1.71873 17.9668 1.75214 18.1235 1.81488 18.2693C1.87762 18.4151 1.96846 18.547 2.08222 18.6577C2.19597 18.7684 2.33041 18.8555 2.47786 18.9142C2.6253 18.9729 2.78287 19.002 2.94155 18.9998H17.0582C17.2169 19.002 17.3745 18.9729 17.5219 18.9142C17.6694 18.8555 17.8038 18.7684 17.9176 18.6577C18.0313 18.547 18.1222 18.4151 18.1849 18.2693C18.2476 18.1235 18.281 17.9668 18.2832 17.8081V3.52479C18.281 3.36611 18.2476 3.2094 18.1849 3.06363C18.1222 2.91786 18.0313 2.78588 17.9176 2.67522C17.8038 2.56456 17.6694 2.47739 17.5219 2.41869C17.3745 2.36 17.2169 2.33092 17.0582 2.33312ZM6.74155 16.2831H4.24155V8.78312H6.74155V16.2831ZM5.49155 7.73312C5.14677 7.73312 4.81611 7.59616 4.57231 7.35236C4.32852 7.10857 4.19155 6.77791 4.19155 6.43312C4.19155 6.08834 4.32852 5.75768 4.57231 5.51389C4.81611 5.27009 5.14677 5.13312 5.49155 5.13312C5.67463 5.11236 5.86003 5.1305 6.03562 5.18636C6.2112 5.24222 6.373 5.33453 6.51043 5.45726C6.64786 5.57999 6.75782 5.73036 6.83311 5.89853C6.9084 6.0667 6.94732 6.24887 6.94732 6.43312C6.94732 6.61738 6.9084 6.79955 6.83311 6.96772C6.75782 7.13589 6.64786 7.28626 6.51043 7.40899C6.373 7.53172 6.2112 7.62403 6.03562 7.67989C5.86003 7.73575 5.67463 7.75389 5.49155 7.73312ZM15.7582 16.2831H13.2582V12.2581C13.2582 11.2498 12.8999 10.5915 11.9916 10.5915C11.7104 10.5935 11.4367 10.6817 11.2072 10.8441C10.9778 11.0065 10.8036 11.2354 10.7082 11.4998C10.643 11.6957 10.6147 11.9019 10.6249 12.1081V16.2748H8.12489V8.77479H10.6249V9.83312C10.852 9.43905 11.1823 9.11439 11.5803 8.89413C11.9782 8.67386 12.4287 8.56633 12.8832 8.58312C14.5499 8.58312 15.7582 9.65813 15.7582 11.9665V16.2831Z" fill="white"/>
</svg>
