<svg width="44" height="44" viewBox="0 0 44 44" fill="none" xmlns="http://www.w3.org/2000/svg">
<path d="M2.75 2.75H41.25V41.25H2.75V2.75Z" fill="#F5DE19"/>
<path d="M28.6124 32.8281C28.9409 33.494 29.4507 34.0537 30.0831 34.4429C30.7155 34.8321 31.4448 35.0349 32.1874 35.0281C33.6861 35.0281 34.6445 34.2787 34.6445 33.2406C34.6445 32.0031 33.66 31.5604 32.01 30.8385L31.1052 30.4507C28.4927 29.3384 26.7602 27.9455 26.7602 25.0002C26.7602 22.2874 28.8227 20.2207 32.0581 20.2207C33.1054 20.1453 34.1518 20.3798 35.0667 20.895C35.9817 21.4101 36.7248 22.1832 37.2034 23.1179L34.375 24.926C34.1906 24.4626 33.8698 24.0662 33.4551 23.7892C33.0403 23.5122 32.5513 23.3678 32.0526 23.375C31.835 23.3532 31.6153 23.377 31.4074 23.4448C31.1995 23.5126 31.0081 23.623 30.8452 23.769C30.6823 23.9149 30.5517 24.0931 30.4615 24.2923C30.3713 24.4915 30.3236 24.7073 30.3215 24.926C30.3215 26.0109 30.9939 26.4509 32.5462 27.126L33.451 27.5137C36.5255 28.8324 38.2635 30.1757 38.2635 33.1966C38.2635 36.454 35.7046 38.2387 32.2685 38.2387C30.9298 38.3232 29.5952 38.0188 28.4255 37.3624C27.2557 36.7059 26.3007 35.7253 25.6754 34.5386L28.6124 32.8281ZM15.8317 33.1416C16.3996 34.1495 16.9166 35.002 18.1596 35.002C19.3476 35.002 20.0984 34.5372 20.0984 32.7291V20.427H23.716V32.7772C23.716 36.5227 21.516 38.2277 18.3136 38.2277C17.1816 38.2896 16.0574 38.0075 15.0888 37.4185C14.1201 36.8295 13.3524 35.9612 12.8865 34.9277L15.8317 33.1416Z" fill="black"/>
</svg>
