<svg width="128" height="167" viewBox="0 0 128 167" fill="none" xmlns="http://www.w3.org/2000/svg">
<path d="M0 1.63147H39.3846V158.244H0V1.63147Z" fill="black"/>
<path d="M69.0972 48.5946C101.628 48.5948 128 74.9668 128 107.498C127.999 140.029 101.628 166.4 69.0972 166.4C36.5661 166.4 10.1941 140.029 10.1939 107.498C10.1939 74.9667 36.566 48.5946 69.0972 48.5946ZM88.731 87.8632C77.8874 87.8633 69.0972 96.6543 69.0972 107.498C69.0975 118.341 77.8875 127.132 88.731 127.132C99.5746 127.132 108.366 118.341 108.366 107.498C108.366 96.6542 99.5748 87.8632 88.731 87.8632Z" fill="#18181B"/>
<path d="M49.2306 0C70.918 0 88.4991 17.5811 88.4991 39.2686C88.4991 60.956 70.9181 78.5371 49.2306 78.5371C27.5432 78.5371 9.96204 60.956 9.96204 39.2686C9.96208 17.5812 27.5432 4.74236e-05 49.2306 0ZM62.3204 22.9072C55.0914 22.9072 49.2307 28.7671 49.2306 35.9961C49.2306 43.2253 55.0913 49.0859 62.3204 49.0859C69.5495 49.0858 75.4103 43.2252 75.4103 35.9961C75.4101 28.7671 69.5494 22.9073 62.3204 22.9072Z" fill="#18181B"/>
</svg>
